<svg version="1.1" id="cloudHailAltMoon" class="climacon climacon_cloudHailAltMoon" xmlns="http://www.w3.org/2000/svg" xmlns:xlink="http://www.w3.org/1999/xlink" x="0px" y="0px" viewBox="15 15 70 70" enable-background="new 15 15 70 70" xml:space="preserve"><clipPath id="cloudFillClip"><path d="M15,15v70h70V15H15z M59.943,61.639c-3.02,0-12.381,0-15.999,0c-6.626,0-11.998-5.371-11.998-11.998c0-6.627,5.372-11.999,11.998-11.999c5.691,0,10.434,3.974,11.665,9.29c1.252-0.81,2.733-1.291,4.334-1.291c4.418,0,8,3.582,8,8C67.943,58.057,64.361,61.639,59.943,61.639z"/></clipPath><clipPath id="moonCloudFillClip"><path d="M0,0v100h100V0H0z M60.943,46.641c-4.418,0-7.999-3.582-7.999-7.999c0-3.803,2.655-6.979,6.211-7.792c0.903,4.854,4.726,8.676,9.579,9.58C67.922,43.986,64.745,46.641,60.943,46.641z"/></clipPath><g class="climacon_iconWrap climacon_iconWrap-cloudHailAltMoon"><g clip-path="url(#cloudFillClip)"><g class="climacon_componentWrap climacon_componentWrap-moon climacon_componentWrap-moon_cloud"><path class="climacon_component climacon_component-stroke climacon_component-stroke_sunBody" d="M61.023,50.641c-6.627,0-11.999-5.372-11.999-11.998c0-6.627,5.372-11.999,11.999-11.999c0.755,0,1.491,0.078,2.207,0.212c-0.132,0.576-0.208,1.173-0.208,1.788c0,4.418,3.582,7.999,8,7.999c0.614,0,1.212-0.076,1.788-0.208c0.133,0.717,0.211,1.452,0.211,2.208C73.021,45.269,67.649,50.641,61.023,50.641z"/><path class="climacon_component climacon_component-fill climacon_component-fill_moon" fill="#FFFFFF" d="M59.235,30.851c-3.556,0.813-6.211,3.989-6.211,7.792c0,4.417,3.581,7.999,7.999,7.999c3.802,0,6.979-2.655,7.791-6.211C63.961,39.527,60.139,35.705,59.235,30.851z"/></g></g><g class="climacon_componentWrap climacon_componentWrap-hailAlt"><g class="climacon_component climacon_component-stroke climacon_component-stroke_hailAlt climacon_component-stroke_hailAlt-left"><circle cx="42" cy="65.498" r="2"/></g><g class="climacon_component climacon_component-stroke climacon_component-stroke_hailAlt climacon_component-stroke_hailAlt-middle"><circle cx="49.999" cy="65.498" r="2"/></g><g class="climacon_component climacon_component-stroke climacon_component-stroke_hailAlt climacon_component-stroke_hailAlt-right"><circle cx="57.998" cy="65.498" r="2"/></g><g class="climacon_component climacon_component-stroke climacon_component-stroke_hailAlt climacon_component-stroke_hailAlt-left"><circle cx="42" cy="65.498" r="2"/></g><g class="climacon_component climacon_component-stroke climacon_component-stroke_hailAlt climacon_component-stroke_hailAlt-middle"><circle cx="49.999" cy="65.498" r="2"/></g><g class="climacon_component climacon_component-stroke climacon_component-stroke_hailAlt climacon_component-stroke_hailAlt-right"><circle cx="57.998" cy="65.498" r="2"/></g></g><g class="climacon_componentWrap climacon_componentWrap-cloud" clip-path="url(#cloudFillClip)"><path class="climacon_component climacon_component-stroke climacon_component-stroke_cloud" d="M63.999,64.941v-4.381c2.39-1.384,3.999-3.961,3.999-6.92c0-4.417-3.581-8-7.998-8c-1.602,0-3.084,0.48-4.334,1.291c-1.23-5.317-5.974-9.29-11.665-9.29c-6.626,0-11.998,5.372-11.998,11.998c0,3.549,1.55,6.728,3.999,8.924v4.916c-4.776-2.768-7.998-7.922-7.998-13.84c0-8.835,7.162-15.997,15.997-15.997c6.004,0,11.229,3.311,13.966,8.203c0.663-0.113,1.336-0.205,2.033-0.205c6.626,0,11.998,5.372,11.998,12C71.998,58.863,68.656,63.293,63.999,64.941z"/></g></g></svg>