<svg version="1.1" id="cloudDrizzleFillAlt" class="climacon climacon_cloudDrizzleFillAlt" xmlns="http://www.w3.org/2000/svg" xmlns:xlink="http://www.w3.org/1999/xlink" x="0px" y="0px" viewBox="15 15 70 70" enable-background="new 15 15 70 70" xml:space="preserve"><g class="climacon_iconWrap climacon_iconWrap-cloudDrizzleFillAlt"><g class="climacon_wrapperComponent climacon_wrapperComponent-drizzle"><path class="climacon_component climacon_component-stroke climacon_component-stroke_drizzle climacon_component-stroke_drizzle-left" id="Drizzle-Left_1_" d="M56.969,57.672l-2.121,2.121c-1.172,1.172-1.172,3.072,0,4.242c1.17,1.172,3.07,1.172,4.24,0c1.172-1.17,1.172-3.07,0-4.242L56.969,57.672z"/><path class="climacon_component climacon_component-stroke climacon_component-stroke_drizzle climacon_component-stroke_drizzle-middle" d="M50.088,57.672l-2.119,2.121c-1.174,1.172-1.174,3.07,0,4.242c1.17,1.172,3.068,1.172,4.24,0s1.172-3.07,0-4.242L50.088,57.672z"/><path class="climacon_component climacon_component-stroke climacon_component-stroke_drizzle climacon_component-stroke_drizzle-right" d="M43.033,57.672l-2.121,2.121c-1.172,1.172-1.172,3.07,0,4.242s3.07,1.172,4.244,0c1.172-1.172,1.172-3.07,0-4.242L43.033,57.672z"/></g><g class="climacon_componentWrap climacon_componentWrap_cloud"><path class="climacon_component climacon_component-stroke climacon_component-stroke_cloud" d="M43.945,65.639c-8.835,0-15.998-7.162-15.998-15.998c0-8.836,7.163-15.998,15.998-15.998c6.004,0,11.229,3.312,13.965,8.203c0.664-0.113,1.338-0.205,2.033-0.205c6.627,0,11.998,5.373,11.998,12c0,6.625-5.371,11.998-11.998,11.998C57.168,65.639,47.143,65.639,43.945,65.639z"/><path class="climacon_component climacon_component-fill climacon_component-fill_cloud" fill="#FFFFFF" d="M59.943,61.639c4.418,0,8-3.582,8-7.998c0-4.417-3.582-8-8-8c-1.601,0-3.082,0.481-4.334,1.291c-1.23-5.316-5.973-9.29-11.665-9.29c-6.626,0-11.998,5.372-11.998,11.999c0,6.626,5.372,11.998,11.998,11.998C47.562,61.639,56.924,61.639,59.943,61.639z"/></g></g></svg>