<svg version="1.1" id="cloudDrizzleSunAlt" class="climacon climacon_cloudDrizzleSunAlt" xmlns="http://www.w3.org/2000/svg" xmlns:xlink="http://www.w3.org/1999/xlink" x="0px" y="0px" viewBox="15 15 70 70" enable-background="new 15 15 70 70" xml:space="preserve"><clipPath id="sunCloudFillClip"><path d="M15,15v70h70V15H15z M57.945,49.641c-4.417,0-8-3.582-8-7.999c0-4.418,3.582-7.999,8-7.999s7.998,3.581,7.998,7.999C65.943,46.059,62.362,49.641,57.945,49.641z"/></clipPath><clipPath id="cloudSunFillClip"><path d="M15,15v70h20.947V63.481c-4.778-2.767-8-7.922-8-13.84c0-8.836,7.163-15.998,15.998-15.998c6.004,0,11.229,3.312,13.965,8.203c0.664-0.113,1.338-0.205,2.033-0.205c6.627,0,11.998,5.373,11.998,12c0,5.262-3.394,9.723-8.107,11.341V85H85V15H15z"/></clipPath><g class="climacon_iconWrap climacon_iconWrap-cloudDrizzleSunAlt"><g clip-path="url(#cloudSunFillClip)"><g class="climacon_componentWrap climacon_componentWrap-sun climacon_componentWrap-sun_cloud"><g class="climacon_componentWrap climacon_componentWrap_sunSpoke"><path class="climacon_component climacon_component-stroke climacon_component-stroke_sunSpoke climacon_component-stroke_sunSpoke-north" d="M80.029,43.611h-3.998c-1.105,0-2-0.896-2-1.999s0.895-2,2-2h3.998c1.104,0,2,0.896,2,2S81.135,43.611,80.029,43.611z"/><path class="climacon_component climacon_component-stroke climacon_component-stroke_sunSpoke climacon_component-stroke_sunSpoke-north" d="M72.174,30.3c-0.781,0.781-2.049,0.781-2.828,0c-0.781-0.781-0.781-2.047,0-2.828l2.828-2.828c0.779-0.781,2.047-0.781,2.828,0c0.779,0.781,0.779,2.047,0,2.828L72.174,30.3z"/><path class="climacon_component climacon_component-stroke climacon_component-stroke_sunSpoke climacon_component-stroke_sunSpoke-north" d="M58.033,25.614c-1.105,0-2-0.896-2-2v-3.999c0-1.104,0.895-2,2-2c1.104,0,2,0.896,2,2v3.999C60.033,24.718,59.135,25.614,58.033,25.614z"/><path class="climacon_component climacon_component-stroke climacon_component-stroke_sunSpoke climacon_component-stroke_sunSpoke-north" d="M43.892,30.3l-2.827-2.828c-0.781-0.781-0.781-2.047,0-2.828c0.78-0.781,2.047-0.781,2.827,0l2.827,2.828c0.781,0.781,0.781,2.047,0,2.828C45.939,31.081,44.673,31.081,43.892,30.3z"/><path class="climacon_component climacon_component-stroke climacon_component-stroke_sunSpoke climacon_component-stroke_sunSpoke-north" d="M42.033,41.612c0,1.104-0.896,1.999-2,1.999h-4c-1.104,0-1.998-0.896-1.998-1.999s0.896-2,1.998-2h4C41.139,39.612,42.033,40.509,42.033,41.612z"/><path class="climacon_component climacon_component-stroke climacon_component-stroke_sunSpoke climacon_component-stroke_sunSpoke-north" d="M43.892,52.925c0.781-0.78,2.048-0.78,2.827,0c0.781,0.78,0.781,2.047,0,2.828l-2.827,2.827c-0.78,0.781-2.047,0.781-2.827,0c-0.781-0.78-0.781-2.047,0-2.827L43.892,52.925z"/><path class="climacon_component climacon_component-stroke climacon_component-stroke_sunSpoke climacon_component-stroke_sunSpoke-north" d="M58.033,57.61c1.104,0,2,0.895,2,1.999v4c0,1.104-0.896,2-2,2c-1.105,0-2-0.896-2-2v-4C56.033,58.505,56.928,57.61,58.033,57.61z"/><path class="climacon_component climacon_component-stroke climacon_component-stroke_sunSpoke climacon_component-stroke_sunSpoke-north" d="M72.174,52.925l2.828,2.828c0.779,0.78,0.779,2.047,0,2.827c-0.781,0.781-2.049,0.781-2.828,0l-2.828-2.827c-0.781-0.781-0.781-2.048,0-2.828C70.125,52.144,71.391,52.144,72.174,52.925z"/></g><g class="climacon_wrapperComponent climacon_wrapperComponent-sunBody" clip-path="url(#sunCloudFillClip)"><circle class="climacon_component climacon_component-stroke climacon_component-stroke_sunBody" cx="58.033" cy="41.612" r="11.999"/></g></g></g><g class="climacon_wrapperComponent climacon_wrapperComponent-drizzle"><path class="climacon_component climacon_component-stroke climacon_component-stroke_drizzle climacon_component-stroke_drizzle-left" id="Drizzle-Left_1_" d="M56.969,57.672l-2.121,2.121c-1.172,1.172-1.172,3.072,0,4.242c1.17,1.172,3.07,1.172,4.24,0c1.172-1.17,1.172-3.07,0-4.242L56.969,57.672z"/><path class="climacon_component climacon_component-stroke climacon_component-stroke_drizzle climacon_component-stroke_drizzle-middle" d="M50.088,57.672l-2.119,2.121c-1.174,1.172-1.174,3.07,0,4.242c1.17,1.172,3.068,1.172,4.24,0s1.172-3.07,0-4.242L50.088,57.672z"/><path class="climacon_component climacon_component-stroke climacon_component-stroke_drizzle climacon_component-stroke_drizzle-right" d="M43.033,57.672l-2.121,2.121c-1.172,1.172-1.172,3.07,0,4.242s3.07,1.172,4.244,0c1.172-1.172,1.172-3.07,0-4.242L43.033,57.672z"/></g><g class="climacon_wrapperComponent climacon_wrapperComponent-cloud" clip-path="url(#cloudFillClip)"><path class="climacon_component climacon_component-stroke climacon_component-stroke_cloud" d="M63.999,64.944v-4.381c2.387-1.386,3.998-3.961,3.998-6.92c0-4.418-3.58-8-7.998-8c-1.603,0-3.084,0.481-4.334,1.291c-1.232-5.316-5.973-9.29-11.664-9.29c-6.628,0-11.999,5.372-11.999,12c0,3.549,1.55,6.729,3.998,8.926v4.914c-4.776-2.769-7.998-7.922-7.998-13.84c0-8.836,7.162-15.999,15.999-15.999c6.004,0,11.229,3.312,13.965,8.203c0.664-0.113,1.336-0.205,2.033-0.205c6.627,0,11.998,5.373,11.998,12C71.997,58.864,68.655,63.296,63.999,64.944z"/></g></g></svg>