 <svg version="1.1" id="cloudDrizzleMoonFill" class="climacon climacon_cloudDrizzleMoonFill" xmlns="http://www.w3.org/2000/svg" xmlns:xlink="http://www.w3.org/1999/xlink" x="0px" y="0px" viewBox="15 15 70 70" enable-background="new 15 15 70 70" xml:space="preserve"><g class="climacon_iconWrap climacon_iconWrap-cloudDrizzleMoonFill"><g class="climacon_componentWrap climacon_componentWrap-moon climacon_componentWrap-moon_cloud"><path class="climacon_component climacon_component-stroke climacon_component-stroke_moon" d="M61.023,50.641c-6.627,0-11.999-5.372-11.999-11.998c0-6.627,5.372-11.999,11.999-11.999c0.755,0,1.491,0.078,2.207,0.212c-0.132,0.576-0.208,1.173-0.208,1.788c0,4.418,3.582,7.999,8,7.999c0.614,0,1.212-0.076,1.788-0.208c0.133,0.717,0.211,1.452,0.211,2.208C73.021,45.269,67.649,50.641,61.023,50.641z"/><path class="climacon_component climacon_component-fill climacon_component-fill_moon" fill="#FFFFFF" d="M59.235,30.851c-3.556,0.813-6.211,3.989-6.211,7.792c0,4.417,3.581,7.999,7.999,7.999c3.802,0,6.979-2.655,7.791-6.211C63.961,39.527,60.139,35.705,59.235,30.851z"/></g><g class="climacon_componentWrap climacon_componentWrap-drizzle"><path class="climacon_component climacon_component-stroke climacon_component-stroke_drizzle climacon_component-stroke_drizzle-left" d="M42.001,53.644c1.104,0,2,0.896,2,2v3.998c0,1.105-0.896,2-2,2c-1.105,0-2.001-0.895-2.001-2v-3.998C40,54.538,40.896,53.644,42.001,53.644z"/><path class="climacon_component climacon_component-stroke climacon_component-stroke_drizzle climacon_component-stroke_drizzle-middle" d="M49.999,53.644c1.104,0,2,0.896,2,2v4c0,1.104-0.896,2-2,2s-1.998-0.896-1.998-2v-4C48.001,54.54,48.896,53.644,49.999,53.644z"/><path class="climacon_component climacon_component-stroke climacon_component-stroke_drizzle climacon_component-stroke_drizzle-right" d="M57.999,53.644c1.104,0,2,0.896,2,2v3.998c0,1.105-0.896,2-2,2c-1.105,0-2-0.895-2-2v-3.998C55.999,54.538,56.894,53.644,57.999,53.644z"/></g><g class="climacon_componentWrap climacon_componentWrap_cloud"><path class="climacon_component climacon_component-stroke climacon_component-stroke_cloud" d="M43.945,65.639c-8.835,0-15.998-7.162-15.998-15.998c0-8.836,7.163-15.998,15.998-15.998c6.004,0,11.229,3.312,13.965,8.203c0.664-0.113,1.338-0.205,2.033-0.205c6.627,0,11.998,5.373,11.998,12c0,6.625-5.371,11.998-11.998,11.998C57.168,65.639,47.143,65.639,43.945,65.639z"/><path class="climacon_component climacon_component-fill climacon_component-fill_cloud" fill="#FFFFFF" d="M59.943,61.639c4.418,0,8-3.582,8-7.998c0-4.417-3.582-8-8-8c-1.601,0-3.082,0.481-4.334,1.291c-1.23-5.316-5.973-9.29-11.665-9.29c-6.626,0-11.998,5.372-11.998,11.999c0,6.626,5.372,11.998,11.998,11.998C47.562,61.639,56.924,61.639,59.943,61.639z"/></g></g></svg>