<svg version="1.1" id="cloudSnowMoon" class="climacon climacon_cloudSnowMoon" xmlns="http://www.w3.org/2000/svg" xmlns:xlink="http://www.w3.org/1999/xlink" x="0px" y="0px" viewBox="15 15 70 70" enable-background="new 15 15 70 70" xml:space="preserve"><clipPath id="moonCloudFillClip"><path d="M0,0v100h100V0H0z M60.943,46.641c-4.418,0-7.999-3.582-7.999-7.999c0-3.803,2.655-6.979,6.211-7.792c0.903,4.854,4.726,8.676,9.579,9.58C67.922,43.986,64.745,46.641,60.943,46.641z"/></clipPath><clipPath id="cloudFillClip"><path d="M15,15v70h70V15H15z M59.943,61.639c-3.02,0-12.381,0-15.999,0c-6.626,0-11.998-5.371-11.998-11.998c0-6.627,5.372-11.999,11.998-11.999c5.691,0,10.434,3.974,11.665,9.29c1.252-0.81,2.733-1.291,4.334-1.291c4.418,0,8,3.582,8,8C67.943,58.057,64.361,61.639,59.943,61.639z"/></clipPath><g class="climacon_iconWrap climacon_iconWrap-cloudSnowMoon"><g clip-path="url(#cloudFillClip)"><g class="climacon_wrapperComponent climacon_wrapperComponent-moon climacon_wrapperComponent-moon_cloud" clip-path="url(#moonCloudFillClip)"><path class="climacon_component climacon_component-stroke climacon_component-stroke_sunBody" d="M61.023,50.641c-6.627,0-11.999-5.372-11.999-11.998c0-6.627,5.372-11.999,11.999-11.999c0.755,0,1.491,0.078,2.207,0.212c-0.132,0.576-0.208,1.173-0.208,1.788c0,4.418,3.582,7.999,8,7.999c0.614,0,1.212-0.076,1.788-0.208c0.133,0.717,0.211,1.452,0.211,2.208C73.021,45.269,67.649,50.641,61.023,50.641z"/></g></g><g class="climacon_wrapperComponent climacon_wrapperComponent-snow"><circle class="climacon_component climacon_component-stroke climacon_component-stroke_snow climacon_component-stroke_snow-left" cx="42.001" cy="59.641" r="2"/><circle class="climacon_component climacon_component-stroke climacon_component-stroke_snow climacon_component-stroke_snow-middle" cx="50.001" cy="59.641" r="2"/><circle class="climacon_component climacon_component-stroke climacon_component-stroke_snow climacon_component-stroke_snow-right" cx="57.999" cy="59.641" r="2"/></g><g class="climacon_wrapperComponent climacon_wrapperComponent-cloud"><path class="climacon_component climacon_component-stroke climacon_component-stroke_cloud" d="M63.999,64.943v-4.381c2.39-1.386,3.999-3.963,3.999-6.922c0-4.417-3.581-7.999-7.999-7.999c-1.601,0-3.083,0.48-4.333,1.291c-1.23-5.317-5.974-9.291-11.665-9.291c-6.627,0-11.998,5.373-11.998,12c0,3.549,1.55,6.729,4,8.924v4.916c-4.777-2.769-8-7.922-8-13.84c0-8.836,7.163-15.999,15.998-15.999c6.004,0,11.229,3.312,13.965,8.204c0.664-0.113,1.337-0.205,2.033-0.205c6.627,0,11.999,5.373,11.999,11.999C71.998,58.863,68.654,63.293,63.999,64.943z"/></g></g></svg>