<svg version="1.1" id="cloudDrizzleMoonAlt" class="climacon climacon_cloudDrizzleMoonAlt" xmlns="http://www.w3.org/2000/svg" xmlns:xlink="http://www.w3.org/1999/xlink" x="0px" y="0px" viewBox="15 15 70 70" enable-background="new 15 15 70 70" xml:space="preserve"><clipPath id="cloudFillClip"><path d="M15,15v70h70V15H15z M59.943,61.639c-3.02,0-12.381,0-15.999,0c-6.626,0-11.998-5.371-11.998-11.998c0-6.627,5.372-11.999,11.998-11.999c5.691,0,10.434,3.974,11.665,9.29c1.252-0.81,2.733-1.291,4.334-1.291c4.418,0,8,3.582,8,8C67.943,58.057,64.361,61.639,59.943,61.639z"/></clipPath><clipPath id="moonCloudFillClip"><path d="M0,0v100h100V0H0z M60.943,46.641c-4.418,0-7.999-3.582-7.999-7.999c0-3.803,2.655-6.979,6.211-7.792c0.903,4.854,4.726,8.676,9.579,9.58C67.922,43.986,64.745,46.641,60.943,46.641z"/></clipPath><g class="climacon_iconWrap climacon_iconWrap-cloudDrizzleMoonAlt"><g clip-path="url(#cloudFillClip)"><g class="climacon_componentWrap climacon_componentWrap-moon climacon_componentWrap-moon_cloud" clip-path="url(#moonCloudFillClip)"><path class="climacon_component climacon_component-stroke climacon_component-stroke_sunBody" d="M61.023,50.641c-6.627,0-11.999-5.372-11.999-11.998c0-6.627,5.372-11.999,11.999-11.999c0.755,0,1.491,0.078,2.207,0.212c-0.132,0.576-0.208,1.173-0.208,1.788c0,4.418,3.582,7.999,8,7.999c0.614,0,1.212-0.076,1.788-0.208c0.133,0.717,0.211,1.452,0.211,2.208C73.021,45.269,67.649,50.641,61.023,50.641z"/></g></g><g class="climacon_componentWrap climacon_componentWrap-drizzle"><path class="climacon_component climacon_component-stroke climacon_component-stroke_drizzle climacon_component-stroke_drizzle-left" id="Drizzle-Left_1_" d="M56.969,57.672l-2.121,2.121c-1.172,1.172-1.172,3.072,0,4.242c1.17,1.172,3.07,1.172,4.24,0c1.172-1.17,1.172-3.07,0-4.242L56.969,57.672z"/><path class="climacon_component climacon_component-stroke climacon_component-stroke_drizzle climacon_component-stroke_drizzle-middle" d="M50.088,57.672l-2.119,2.121c-1.174,1.172-1.174,3.07,0,4.242c1.17,1.172,3.068,1.172,4.24,0s1.172-3.07,0-4.242L50.088,57.672z"/><path class="climacon_component climacon_component-stroke climacon_component-stroke_drizzle climacon_component-stroke_drizzle-right" d="M43.033,57.672l-2.121,2.121c-1.172,1.172-1.172,3.07,0,4.242s3.07,1.172,4.244,0c1.172-1.172,1.172-3.07,0-4.242L43.033,57.672z"/></g><g class="climacon_componentWrap climacon_componentWrap-cloud" clip-path="url(#cloudFillClip)"><path class="climacon_component climacon_component-stroke climacon_component-stroke_cloud" d="M59.943,41.642c-0.696,0-1.369,0.092-2.033,0.205c-2.736-4.892-7.961-8.203-13.965-8.203c-8.835,0-15.998,7.162-15.998,15.997c0,5.992,3.3,11.207,8.177,13.947c0.276-1.262,0.892-2.465,1.873-3.445l0.057-0.057c-3.644-2.061-6.106-5.963-6.106-10.445c0-6.626,5.372-11.998,11.998-11.998c5.691,0,10.433,3.974,11.666,9.29c1.25-0.81,2.732-1.291,4.332-1.291c4.418,0,8,3.581,8,7.999c0,3.443-2.182,6.371-5.235,7.498c0.788,1.146,1.194,2.471,1.222,3.807c4.666-1.645,8.014-6.077,8.014-11.305C71.941,47.014,66.57,41.642,59.943,41.642z"/></g></g></svg>