<svg version="1.1" id="cloudRainSunAltFill" class="climacon climacon_cloudSunRainAltFill" xmlns="http://www.w3.org/2000/svg" xmlns:xlink="http://www.w3.org/1999/xlink" x="0px" y="0px" viewBox="15 15 70 70" enable-background="new 15 15 70 70" xml:space="preserve"><clipPath id="cloudFillClip"><path d="M15,15v70h70V15H15z M59.943,61.639c-3.02,0-12.381,0-15.999,0c-6.626,0-11.998-5.371-11.998-11.998c0-6.627,5.372-11.999,11.998-11.999c5.691,0,10.434,3.974,11.665,9.29c1.252-0.81,2.733-1.291,4.334-1.291c4.418,0,8,3.582,8,8C67.943,58.057,64.361,61.639,59.943,61.639z"/></clipPath><clipPath id="sunCloudFillClip"><path d="M15,15v70h70V15H15z M57.945,49.641c-4.417,0-8-3.582-8-7.999c0-4.418,3.582-7.999,8-7.999s7.998,3.581,7.998,7.999C65.943,46.059,62.362,49.641,57.945,49.641z"/></clipPath><clipPath id="cloudSunFillClip"><path d="M15,15v70h20.947V63.481c-4.778-2.767-8-7.922-8-13.84c0-8.836,7.163-15.998,15.998-15.998c6.004,0,11.229,3.312,13.965,8.203c0.664-0.113,1.338-0.205,2.033-0.205c6.627,0,11.998,5.373,11.998,12c0,5.262-3.394,9.723-8.107,11.341V85H85V15H15z"/></clipPath><g class="climacon_iconWrap climacon_iconWrap-cloudRainSunAltFill"><g class="climacon_componentWrap climacon_componentWrap-sun climacon_componentWrap-sun_cloud"><g class="climacon_componentWrap climacon_componentWrap_sunSpoke"><path class="climacon_component climacon_component-stroke climacon_component-stroke_sunSpoke climacon_component-stroke_sunSpoke-north" d="M80.029,43.611h-3.998c-1.105,0-2-0.896-2-1.999s0.895-2,2-2h3.998c1.104,0,2,0.896,2,2S81.135,43.611,80.029,43.611z"/><path class="climacon_component climacon_component-stroke climacon_component-stroke_sunSpoke climacon_component-stroke_sunSpoke-north" d="M72.174,30.3c-0.781,0.781-2.049,0.781-2.828,0c-0.781-0.781-0.781-2.047,0-2.828l2.828-2.828c0.779-0.781,2.047-0.781,2.828,0c0.779,0.781,0.779,2.047,0,2.828L72.174,30.3z"/><path class="climacon_component climacon_component-stroke climacon_component-stroke_sunSpoke climacon_component-stroke_sunSpoke-north" d="M58.033,25.614c-1.105,0-2-0.896-2-2v-3.999c0-1.104,0.895-2,2-2c1.104,0,2,0.896,2,2v3.999C60.033,24.718,59.135,25.614,58.033,25.614z"/><path class="climacon_component climacon_component-stroke climacon_component-stroke_sunSpoke climacon_component-stroke_sunSpoke-north" d="M43.892,30.3l-2.827-2.828c-0.781-0.781-0.781-2.047,0-2.828c0.78-0.781,2.047-0.781,2.827,0l2.827,2.828c0.781,0.781,0.781,2.047,0,2.828C45.939,31.081,44.673,31.081,43.892,30.3z"/><path class="climacon_component climacon_component-stroke climacon_component-stroke_sunSpoke climacon_component-stroke_sunSpoke-north" d="M42.033,41.612c0,1.104-0.896,1.999-2,1.999h-4c-1.104,0-1.998-0.896-1.998-1.999s0.896-2,1.998-2h4C41.139,39.612,42.033,40.509,42.033,41.612z"/><path class="climacon_component climacon_component-stroke climacon_component-stroke_sunSpoke climacon_component-stroke_sunSpoke-north" d="M43.892,52.925c0.781-0.78,2.048-0.78,2.827,0c0.781,0.78,0.781,2.047,0,2.828l-2.827,2.827c-0.78,0.781-2.047,0.781-2.827,0c-0.781-0.78-0.781-2.047,0-2.827L43.892,52.925z"/><path class="climacon_component climacon_component-stroke climacon_component-stroke_sunSpoke climacon_component-stroke_sunSpoke-north" d="M58.033,57.61c1.104,0,2,0.895,2,1.999v4c0,1.104-0.896,2-2,2c-1.105,0-2-0.896-2-2v-4C56.033,58.505,56.928,57.61,58.033,57.61z"/><path class="climacon_component climacon_component-stroke climacon_component-stroke_sunSpoke climacon_component-stroke_sunSpoke-north" d="M72.174,52.925l2.828,2.828c0.779,0.78,0.779,2.047,0,2.827c-0.781,0.781-2.049,0.781-2.828,0l-2.828-2.827c-0.781-0.781-0.781-2.048,0-2.828C70.125,52.144,71.391,52.144,72.174,52.925z"/></g><g class="climacon_componentWrap climacon_componentWrap-sunBody"><circle class="climacon_component climacon_component-stroke climacon_component-stroke_sunBody" cx="58.033" cy="41.612" r="11.999"/><circle class="climacon_component climacon_component-fill climacon_component-fill_sunBody" fill="#FFFFFF" cx="58.033" cy="41.612" r="7.999"/></g></g><g class="climacon_componentWrap climacon_componentWrap-rain climacon_componentWrap-rain_alt"><path class="climacon_component climacon_component-stroke climacon_component-stroke_rain climacon_component-stroke_rain- alt" d="M50.001,58.568l3.535,3.535c1.95,1.953,1.95,5.119,0,7.07c-1.953,1.953-5.119,1.953-7.07,0c-1.953-1.951-1.953-5.117,0-7.07L50.001,58.568z"/><path class="climacon_component climacon_component-stroke climacon_component-stroke_rain climacon_component-stroke_rain- alt" d="M50.001,58.568l3.535,3.535c1.95,1.953,1.95,5.119,0,7.07c-1.953,1.953-5.119,1.953-7.07,0c-1.953-1.951-1.953-5.117,0-7.07L50.001,58.568z"/></g><g class="climacon_componentWrap climacon_componentWrap_cloud"><path class="climacon_component climacon_component-stroke climacon_component-stroke_cloud" d="M43.945,65.639c-8.835,0-15.998-7.162-15.998-15.998c0-8.836,7.163-15.998,15.998-15.998c6.004,0,11.229,3.312,13.965,8.203c0.664-0.113,1.338-0.205,2.033-0.205c6.627,0,11.998,5.373,11.998,12c0,6.625-5.371,11.998-11.998,11.998C57.168,65.639,47.143,65.639,43.945,65.639z"/><path class="climacon_component climacon_component-fill climacon_component-fill_cloud" fill="#FFFFFF" d="M59.943,61.639c4.418,0,8-3.582,8-7.998c0-4.417-3.582-8-8-8c-1.601,0-3.082,0.481-4.334,1.291c-1.23-5.316-5.973-9.29-11.665-9.29c-6.626,0-11.998,5.372-11.998,11.999c0,6.626,5.372,11.998,11.998,11.998C47.562,61.639,56.924,61.639,59.943,61.639z"/></g></g></svg>