<svg version="1.1" id="tornado" class="climacon climacon_tornado" xmlns="http://www.w3.org/2000/svg" xmlns:xlink="http://www.w3.org/1999/xlink" x="0px" y="0px" viewBox="15 15 70 70" enable-background="new 15 15 70 70" xml:space="preserve"><g class="climacon_iconWrap climacon_iconWrap-tornado"><g class="climacon_componentWrap climacon_componentWrap-tornado"><path class="climacon_component climacon_component-stroke climacon_component-stroke_tornadoLine" d="M68.997,36.459H31.002c-1.104,0-2-0.896-2-1.999c0-1.104,0.896-2,2-2h37.995c1.104,0,2,0.896,2,2C70.997,35.563,70.102,36.459,68.997,36.459z"/><path class="climacon_component climacon_component-stroke climacon_component-stroke_tornadoLine" d="M35.002,40.459h29.996c1.104,0,2,0.896,2,2s-0.896,1.999-2,1.999H35.002c-1.104,0-2-0.896-2-1.999C33.002,41.354,33.898,40.459,35.002,40.459z"/><path class="climacon_component climacon_component-stroke climacon_component-stroke_tornadoLine" d="M39.001,48.458h21.998c1.104,0,1.999,0.896,1.999,1.999c0,1.104-0.896,2-1.999,2H39.001c-1.104,0-1.999-0.896-1.999-2C37.002,49.354,37.897,48.458,39.001,48.458z"/><path class="climacon_component climacon_component-stroke climacon_component-stroke_tornadoLine" d="M47,64.456h6c1.104,0,2,0.896,2,1.999s-0.896,2-2,2H47c-1.104,0-2-0.896-2-2S45.896,64.456,47,64.456z"/><path class="climacon_component climacon_component-stroke climacon_component-stroke_tornadoLine" d="M40.869,58.456c0-1.104,0.896-1.999,2-1.999h13.998c1.104,0,2,0.896,2,1.999c0,1.104-0.896,2-2,2H42.869C41.765,60.456,40.869,59.561,40.869,58.456z"/></g></g></svg>